<?xml version="1.0" encoding="UTF-8" standalone="no"?>
<svg
   xmlns:dc="http://purl.org/dc/elements/1.1/"
   xmlns:cc="http://creativecommons.org/ns#"
   xmlns:rdf="http://www.w3.org/1999/02/22-rdf-syntax-ns#"
   xmlns:svg="http://www.w3.org/2000/svg"
   xmlns="http://www.w3.org/2000/svg"
   xmlns:sodipodi="http://sodipodi.sourceforge.net/DTD/sodipodi-0.dtd"
   xmlns:inkscape="http://www.inkscape.org/namespaces/inkscape"
   width="17.32999mm"
   height="17.859678mm"
   version="1.1"
   viewBox="0 0 17.32999 17.859678"
   id="svg44"
   sodipodi:docname="logo_light_mini.svg"
   inkscape:version="0.92.3 (2405546, 2018-03-11)">
  <sodipodi:namedview
     pagecolor="#ffffff"
     bordercolor="#666666"
     borderopacity="1"
     objecttolerance="10"
     gridtolerance="10"
     guidetolerance="10"
     inkscape:pageopacity="0"
     inkscape:pageshadow="2"
     inkscape:window-width="640"
     inkscape:window-height="480"
     id="namedview46"
     showgrid="false"
     fit-margin-top="0"
     fit-margin-left="0"
     fit-margin-right="0"
     fit-margin-bottom="0"
     inkscape:zoom="1.6819304"
     inkscape:cx="75.707205"
     inkscape:cy="3.6239935"
     inkscape:window-x="0"
     inkscape:window-y="0"
     inkscape:window-maximized="0"
     inkscape:current-layer="svg44" />
  <defs
     id="defs22">
    <linearGradient
       id="d"
       x1="449.09"
       x2="475.67001"
       y1="912.70001"
       y2="912.70001"
       gradientTransform="translate(144.86,777.01)"
       gradientUnits="userSpaceOnUse">
      <stop
         stop-color="#00ADEE"
         offset=".2871"
         id="stop2" />
      <stop
         stop-color="#007FC3"
         offset="1"
         id="stop4" />
    </linearGradient>
    <radialGradient
       id="a"
       cx="481.45999"
       cy="878.70001"
       r="39.299"
       gradientUnits="userSpaceOnUse">
      <stop
         stop-color="#F9EC31"
         offset="0"
         id="stop7" />
      <stop
         stop-color="#F9A31B"
         offset="1"
         id="stop9" />
    </radialGradient>
    <linearGradient
       id="b"
       x1="476.10001"
       x2="503.06"
       y1="905.79999"
       y2="905.79999"
       gradientUnits="userSpaceOnUse">
      <stop
         stop-color="#00ADEE"
         offset=".2871"
         id="stop12" />
      <stop
         stop-color="#007FC3"
         offset="1"
         id="stop14" />
    </linearGradient>
    <linearGradient
       id="c"
       x1="500.39001"
       x2="514.65002"
       y1="867.63"
       y2="867.63"
       gradientTransform="translate(144.86,777.01)"
       gradientUnits="userSpaceOnUse">
      <stop
         stop-color="#00ADEE"
         offset=".2871"
         id="stop17" />
      <stop
         stop-color="#007FC3"
         offset="1"
         id="stop19" />
    </linearGradient>
  </defs>
  <metadata
     id="metadata24">
    <rdf:RDF>
      <cc:Work
         rdf:about="">
        <dc:format>image/svg+xml</dc:format>
        <dc:type
           rdf:resource="http://purl.org/dc/dcmitype/StillImage" />
        <dc:title></dc:title>
      </cc:Work>
    </rdf:RDF>
  </metadata>
  <g
     transform="matrix(0.26458,0,0,0.26458,-38.327059,-205.58078)"
     id="g42">
    <path
       class="st0"
       d="m 171.46,824.31 -1.7,1.7 c -1.4,1.5 -2.9,2.9 -4.3,4.3 -0.3,0.2 -0.8,0.7 -1,1 -2,2 -4.1,4 -6.1,6.1 -2.4,2.4 -4.8,4.8 -7.2,7.1 -2.1,-2.1 -4.2,-4.1 -6.3,-6.1 l 0.9,-0.9 0.8,-0.8 18.5,-18.6 z"
       id="path26"
       inkscape:connector-curvature="0"
       style="fill:url(#d)" />
    <g
       transform="translate(-304.24,-81.492)"
       id="g30">
      <path
         class="st1"
         d="m 502.9,878.3 c -2.1,2.3 -4.3,4.4 -6.4,6.7 l -13.9,-13.1 -1.7,1.8 -5.2,5.5 c -2,2.2 -4.1,4.3 -6.1,6.5 -2.3,-2.1 -4.5,-4.4 -6.8,-6.6 l 20.1,-20.6 10,9.9 c 3.3,3.3 6.6,6.6 10,9.9 z"
         id="path28"
         inkscape:connector-curvature="0"
         style="fill:url(#a)" />
    </g>
    <path
       class="st2"
       d="m 178.06,804.21 -6.1,6.4 -0.2,0.2 -6.6,-6.5 c 2.1,-2.2 4.1,-4.3 6.1,-6.5 z"
       id="path32"
       inkscape:connector-curvature="0"
       style="opacity:0.55;fill:#8edbed" />
    <path
       class="st2"
       d="m 178.66,831.51 c -0.5,0.5 -1,0.9 -1.4,1.4 l -5.1,5.1 c -2.4,-2.3 -4.8,-4.8 -7.2,-7.2 l 0.5,-0.5 c 1.5,-1.4 2.9,-2.9 4.3,-4.3 l 1.7,-1.7 z"
       id="path34"
       inkscape:connector-curvature="0"
       style="opacity:0.55;fill:#8edbed" />
    <g
       transform="translate(-304.24,-81.492)"
       id="g38">
      <path
         class="st3"
         d="m 503.1,905.6 c -1.4,1.4 -2.8,2.8 -4.3,4.2 -1.7,1.8 -3.5,3.6 -5.3,5.3 -3.5,3.6 -7.2,7.2 -10.8,10.8 -2.1,-2.1 -4.3,-4.2 -6.3,-6.4 l 5.1,-5.1 1.4,-1.4 c 1.3,-1.2 2.6,-2.6 3.9,-3.9 l 3.1,-3.1 -2,-2 -2.8,-2.7 -0.3,-0.3 -2.1,-2 -0.4,-0.4 -6.4,-6.4 0.2,-0.2 6.1,-6.4 c 4.9,4.5 9.7,9.1 14.4,13.8 l 0.4,0.4 z"
         id="path36"
         inkscape:connector-curvature="0"
         style="fill:url(#b)" />
    </g>
    <path
       class="st4"
       d="m 210.36,785.51 c -0.8,0.7 -1.5,1.5 -2.3,2.2 l -5.4,5.3 -0.8,-0.8 -5.8,-5.6 7.6,-7.6 1.3,1.3 0.3,0.3 z"
       id="path40"
       inkscape:connector-curvature="0"
       style="fill:url(#c)" />
  </g>
</svg>
