<?xml version="1.0" encoding="UTF-8" standalone="no"?>
<svg
   xmlns:dc="http://purl.org/dc/elements/1.1/"
   xmlns:cc="http://creativecommons.org/ns#"
   xmlns:rdf="http://www.w3.org/1999/02/22-rdf-syntax-ns#"
   xmlns:svg="http://www.w3.org/2000/svg"
   xmlns="http://www.w3.org/2000/svg"
   xmlns:sodipodi="http://sodipodi.sourceforge.net/DTD/sodipodi-0.dtd"
   xmlns:inkscape="http://www.inkscape.org/namespaces/inkscape"
   width="17.32999mm"
   height="17.832691mm"
   version="1.1"
   viewBox="0 0 17.32999 17.832691"
   id="svg63"
   sodipodi:docname="logo_dark_mini.svg"
   inkscape:version="0.92.3 (2405546, 2018-03-11)">
  <sodipodi:namedview
     pagecolor="#ffffff"
     bordercolor="#666666"
     borderopacity="1"
     objecttolerance="10"
     gridtolerance="10"
     guidetolerance="10"
     inkscape:pageopacity="0"
     inkscape:pageshadow="2"
     inkscape:window-width="640"
     inkscape:window-height="480"
     id="namedview65"
     showgrid="false"
     fit-margin-top="0"
     fit-margin-left="0"
     fit-margin-right="0"
     fit-margin-bottom="0"
     inkscape:zoom="1.1893044"
     inkscape:cx="112.7018"
     inkscape:cy="85.400028"
     inkscape:window-x="0"
     inkscape:window-y="0"
     inkscape:window-maximized="0"
     inkscape:current-layer="g59" />
  <defs
     id="defs37">
    <radialGradient
       id="c"
       cx="590.28998"
       cy="310.07999"
       r="1.074"
       gradientUnits="userSpaceOnUse">
      <stop
         stop-color="#00ADEE"
         offset=".3564"
         id="stop2" />
      <stop
         stop-color="#1B75BB"
         offset="1"
         id="stop4" />
    </radialGradient>
    <radialGradient
       id="b"
       cx="591.20001"
       cy="312.53"
       r="1.7201"
       gradientUnits="userSpaceOnUse">
      <stop
         stop-color="#00ADEE"
         offset=".3564"
         id="stop7" />
      <stop
         stop-color="#1B75BB"
         offset="1"
         id="stop9" />
    </radialGradient>
    <radialGradient
       id="a"
       cx="588.77002"
       cy="307.89999"
       r="1.5391999"
       gradientUnits="userSpaceOnUse">
      <stop
         stop-color="#00ADEE"
         offset=".3564"
         id="stop12" />
      <stop
         stop-color="#1B75BB"
         offset="1"
         id="stop14" />
    </radialGradient>
    <linearGradient
       id="g"
       x1="449.09"
       x2="475.67001"
       y1="337.19"
       y2="337.19"
       gradientUnits="userSpaceOnUse">
      <stop
         stop-color="#00ADEE"
         offset=".2871"
         id="stop17" />
      <stop
         stop-color="#007FC3"
         offset="1"
         id="stop19" />
    </linearGradient>
    <radialGradient
       id="d"
       cx="481.45999"
       cy="303.17999"
       r="39.299"
       gradientUnits="userSpaceOnUse">
      <stop
         stop-color="#F9EC31"
         offset="0"
         id="stop22" />
      <stop
         stop-color="#F9A31B"
         offset="1"
         id="stop24" />
    </radialGradient>
    <linearGradient
       id="f"
       x1="476.10001"
       x2="503.06"
       y1="330.29001"
       y2="330.29001"
       gradientUnits="userSpaceOnUse">
      <stop
         stop-color="#00ADEE"
         offset=".2871"
         id="stop27" />
      <stop
         stop-color="#007FC3"
         offset="1"
         id="stop29" />
    </linearGradient>
    <linearGradient
       id="e"
       x1="500.39001"
       x2="514.65002"
       y1="292.12"
       y2="292.12"
       gradientUnits="userSpaceOnUse">
      <stop
         stop-color="#00ADEE"
         offset=".2871"
         id="stop32" />
      <stop
         stop-color="#007FC3"
         offset="1"
         id="stop34" />
    </linearGradient>
  </defs>
  <metadata
     id="metadata39">
    <rdf:RDF>
      <cc:Work
         rdf:about="">
        <dc:format>image/svg+xml</dc:format>
        <dc:type
           rdf:resource="http://purl.org/dc/dcmitype/StillImage" />
        <dc:title></dc:title>
      </cc:Work>
    </rdf:RDF>
  </metadata>
  <g
     transform="matrix(0.26458,0,0,0.26458,-98.095945,-290.92423)"
     id="g61">
    <line
       class="st29"
       x1="591.79999"
       x2="588.79999"
       y1="310.10001"
       y2="310.10001"
       id="line41"
       style="fill:url(#c)" />
    <line
       class="st30"
       x1="593.59998"
       x2="588.79999"
       y1="312.5"
       y2="312.5"
       id="line43"
       style="fill:url(#b)" />
    <line
       class="st31"
       x1="588.79999"
       x2="588.79999"
       y1="310.10001"
       y2="305.70001"
       id="line45"
       style="fill:url(#a)" />
    <g
       transform="translate(-78.339,816.57)"
       id="g59">
      <path
         class="st16"
         d="m 475.7,330.2 -1.7,1.7 c -1.4,1.5 -2.9,2.9 -4.3,4.3 -0.3,0.2 -0.8,0.7 -1,1 -2,2 -4.1,4 -6.1,6.1 -2.4,2.4 -4.8,4.8 -7.2,7.1 -2.1,-2.1 -4.2,-4.1 -6.3,-6.1 l 0.9,-0.9 0.8,-0.8 18.5,-18.6 z"
         id="path47"
         inkscape:connector-curvature="0"
         style="fill:url(#g)" />
      <path
         class="st17"
         d="m 502.9,302.8 c -2.1,2.3 -4.3,4.4 -6.4,6.7 l -13.9,-13.1 -1.7,1.8 -5.2,5.5 c -2,2.2 -4.1,4.3 -6.1,6.5 -2.3,-2.1 -4.5,-4.4 -6.8,-6.6 l 20.1,-20.6 10,9.9 c 3.3,3.3 6.6,6.6 10,9.9 z"
         id="path49"
         inkscape:connector-curvature="0"
         style="fill:url(#d)" />
      <path
         class="st18"
         d="m 482.3,310.2 -6.1,6.4 -0.2,0.2 -6.6,-6.5 c 2.1,-2.2 4.1,-4.3 6.1,-6.5 z"
         id="path51"
         inkscape:connector-curvature="0"
         style="fill:#333333" />
      <path
         class="st18"
         d="m 482.9,337.4 c -0.5,0.5 -1,0.9 -1.4,1.4 l -5.1,5.1 c -2.4,-2.3 -4.8,-4.8 -7.2,-7.2 l 0.5,-0.5 c 1.5,-1.4 2.9,-2.9 4.3,-4.3 l 1.7,-1.7 z"
         id="path53"
         inkscape:connector-curvature="0"
         style="fill:#333333" />
      <path
         class="st19"
         d="m 503.1,330.1 c -1.4,1.4 -2.8,2.8 -4.3,4.2 -1.7,1.8 -3.5,3.6 -5.3,5.3 -3.5,3.6 -7.2,7.2 -10.8,10.8 -2.1,-2.1 -4.3,-4.2 -6.3,-6.4 l 5.1,-5.1 1.4,-1.4 c 1.3,-1.2 2.6,-2.6 3.9,-3.9 l 3.1,-3.1 -2,-2 -2.8,-2.7 -0.3,-0.3 -2.1,-2 -0.4,-0.4 -6.4,-6.4 0.2,-0.2 6.1,-6.4 c 4.9,4.5 9.7,9.1 14.4,13.8 l 0.4,0.4 z"
         id="path55"
         inkscape:connector-curvature="0"
         style="fill:url(#f)" />
      <path
         class="st20"
         d="m 514.6,291.5 c -0.8,0.7 -1.5,1.5 -2.3,2.2 l -5.4,5.3 -0.8,-0.8 -5.8,-5.6 7.6,-7.6 1.3,1.3 0.3,0.3 z"
         id="path57"
         inkscape:connector-curvature="0"
         style="fill:url(#e)" />
    </g>
  </g>
</svg>
