<?xml version="1.0" encoding="UTF-8" standalone="no"?>
<!-- Generator: Adobe Illustrator 21.0.0, SVG Export Plug-In . SVG Version: 6.00 Build 0)  -->

<svg
   xmlns:dc="http://purl.org/dc/elements/1.1/"
   xmlns:cc="http://creativecommons.org/ns#"
   xmlns:rdf="http://www.w3.org/1999/02/22-rdf-syntax-ns#"
   xmlns:svg="http://www.w3.org/2000/svg"
   xmlns="http://www.w3.org/2000/svg"
   xmlns:sodipodi="http://sodipodi.sourceforge.net/DTD/sodipodi-0.dtd"
   xmlns:inkscape="http://www.inkscape.org/namespaces/inkscape"
   version="1.1"
   id="Layer_1"
   x="0px"
   y="0px"
   viewBox="0 0 448 67.5"
   xml:space="preserve"
   sodipodi:docname="Untitled-4.svg"
   width="448"
   height="67.5"
   inkscape:version="0.92.3 (2405546, 2018-03-11)"><metadata
   id="metadata245"><rdf:RDF><cc:Work
       rdf:about=""><dc:format>image/svg+xml</dc:format><dc:type
         rdf:resource="http://purl.org/dc/dcmitype/StillImage" /><dc:title></dc:title></cc:Work></rdf:RDF></metadata><defs
   id="defs243" /><sodipodi:namedview
   pagecolor="#ffffff"
   bordercolor="#666666"
   borderopacity="1"
   objecttolerance="10"
   gridtolerance="10"
   guidetolerance="10"
   inkscape:pageopacity="0"
   inkscape:pageshadow="2"
   inkscape:window-width="640"
   inkscape:window-height="480"
   id="namedview241"
   showgrid="false"
   fit-margin-top="0"
   fit-margin-left="0"
   fit-margin-right="0"
   fit-margin-bottom="0"
   inkscape:zoom="0.19666667"
   inkscape:cx="132.02383"
   inkscape:cy="147.12293"
   inkscape:window-x="0"
   inkscape:window-y="0"
   inkscape:window-maximized="0"
   inkscape:current-layer="Layer_1" />
<style
   type="text/css"
   id="style2">
	.st0{fill:url(#SVGID_1_);}
	.st1{fill:url(#SVGID_2_);}
	.st2{opacity:0.55;fill:#8EDBED;}
	.st3{fill:url(#SVGID_3_);}
	.st4{fill:url(#SVGID_4_);}
	.st5{fill:url(#SVGID_5_);}
	.st6{fill:url(#SVGID_6_);}
	.st7{fill:url(#SVGID_7_);}
	.st8{fill:url(#SVGID_8_);}
	.st9{fill:url(#SVGID_9_);}
	.st10{fill:url(#SVGID_10_);}
	.st11{fill:url(#SVGID_11_);}
	.st12{fill:url(#SVGID_12_);}
	.st13{fill:url(#SVGID_13_);}
	.st14{fill:url(#SVGID_14_);}
	.st15{fill:url(#SVGID_15_);}
	.st16{fill:url(#SVGID_16_);}
	.st17{fill:url(#SVGID_17_);}
	.st18{fill:#80EDFF;}
	.st19{fill:url(#SVGID_18_);}
	.st20{fill:url(#SVGID_19_);}
	.st21{fill:url(#SVGID_20_);}
	.st22{fill:url(#SVGID_21_);}
	.st23{fill:url(#SVGID_22_);}
	.st24{fill:url(#SVGID_23_);}
	.st25{fill:url(#SVGID_24_);}
	.st26{fill:url(#SVGID_25_);}
	.st27{fill:url(#SVGID_26_);}
	.st28{fill:url(#SVGID_27_);}
	.st29{fill:url(#SVGID_28_);}
	.st30{fill:url(#SVGID_29_);}
	.st31{fill:url(#SVGID_30_);}
</style>

<g
   id="g121"
   transform="translate(-276,-858.5)">
	<linearGradient
   id="SVGID_1_"
   gradientUnits="userSpaceOnUse"
   x1="449.0921"
   y1="912.70392"
   x2="475.66971"
   y2="912.70392">
		<stop
   offset="0.2871"
   style="stop-color:#00ADEE"
   id="stop6" />
		<stop
   offset="1"
   style="stop-color:#007FC3"
   id="stop8" />
	</linearGradient>
	<path
   class="st0"
   d="m 475.7,905.8 c -0.6,0.6 -1.1,1.1 -1.7,1.7 -1.4,1.5 -2.9,2.9 -4.3,4.3 -0.3,0.2 -0.8,0.7 -1,1 -2,2 -4.1,4 -6.1,6.1 -2.4,2.4 -4.8,4.8 -7.2,7.1 -2.1,-2.1 -4.2,-4.1 -6.3,-6.1 l 0.9,-0.9 0.8,-0.8 v 0 l 18.5,-18.6 z"
   id="path11"
   inkscape:connector-curvature="0"
   style="fill:url(#SVGID_1_)" />
	<g
   id="g20">
		<radialGradient
   id="SVGID_2_"
   cx="481.45889"
   cy="878.69849"
   r="39.2994"
   gradientUnits="userSpaceOnUse">
			<stop
   offset="0"
   style="stop-color:#F9EC31"
   id="stop13" />
			<stop
   offset="1"
   style="stop-color:#F9A31B"
   id="stop15" />
		</radialGradient>
		<path
   class="st1"
   d="m 502.9,878.3 c -2.1,2.3 -4.3,4.4 -6.4,6.7 v 0 l -13.9,-13.1 -1.7,1.8 -5.2,5.5 c -2,2.2 -4.1,4.3 -6.1,6.5 -2.3,-2.1 -4.5,-4.4 -6.8,-6.6 l 20.1,-20.6 10,9.9 c 3.3,3.3 6.6,6.6 10,9.9 z"
   id="path18"
   inkscape:connector-curvature="0"
   style="fill:url(#SVGID_2_)" />
	</g>
	<path
   class="st2"
   d="m 482.3,885.7 -6.1,6.4 -0.2,0.2 v 0 l -6.6,-6.5 c 2.1,-2.2 4.1,-4.3 6.1,-6.5 z"
   id="path22"
   inkscape:connector-curvature="0"
   style="opacity:0.55;fill:#8edbed" />
	<path
   class="st2"
   d="m 482.9,913 c -0.5,0.5 -1,0.9 -1.4,1.4 -1.7,1.7 -3.4,3.4 -5.1,5.1 -2.4,-2.3 -4.8,-4.8 -7.2,-7.2 l 0.5,-0.5 c 1.5,-1.4 2.9,-2.9 4.3,-4.3 0.6,-0.6 1.1,-1.1 1.7,-1.7 z"
   id="path24"
   inkscape:connector-curvature="0"
   style="opacity:0.55;fill:#8edbed" />
	<g
   id="g33">
		<linearGradient
   id="SVGID_3_"
   gradientUnits="userSpaceOnUse"
   x1="476.0986"
   y1="905.80298"
   x2="503.05991"
   y2="905.80298">
			<stop
   offset="0.2871"
   style="stop-color:#00ADEE"
   id="stop26" />
			<stop
   offset="1"
   style="stop-color:#007FC3"
   id="stop28" />
		</linearGradient>
		<path
   class="st3"
   d="m 503.1,905.6 c -1.4,1.4 -2.8,2.8 -4.3,4.2 -1.7,1.8 -3.5,3.6 -5.3,5.3 -3.5,3.6 -7.2,7.2 -10.8,10.8 -2.1,-2.1 -4.3,-4.2 -6.3,-6.4 1.7,-1.7 3.4,-3.4 5.1,-5.1 0.5,-0.5 0.9,-0.9 1.4,-1.4 1.3,-1.2 2.6,-2.6 3.9,-3.9 1,-1 2.1,-2.1 3.1,-3.1 l -2,-2 -2.8,-2.7 -0.3,-0.3 -2.1,-2 -0.4,-0.4 -6.4,-6.4 0.2,-0.2 6.1,-6.4 v 0 c 4.9,4.5 9.7,9.1 14.4,13.8 l 0.4,0.4 v 0 z"
   id="path31"
   inkscape:connector-curvature="0"
   style="fill:url(#SVGID_3_)" />
	</g>
	<linearGradient
   id="SVGID_4_"
   gradientUnits="userSpaceOnUse"
   x1="500.38861"
   y1="867.63171"
   x2="514.64807"
   y2="867.63171">
		<stop
   offset="0.2871"
   style="stop-color:#00ADEE"
   id="stop35" />
		<stop
   offset="1"
   style="stop-color:#007FC3"
   id="stop37" />
	</linearGradient>
	<path
   class="st4"
   d="m 514.6,867 c -0.8,0.7 -1.5,1.5 -2.3,2.2 l -5.4,5.3 -0.8,-0.8 -5.8,-5.6 7.6,-7.6 c 0.4,0.4 0.9,0.9 1.3,1.3 l 0.3,0.3 z"
   id="path40"
   inkscape:connector-curvature="0"
   style="fill:url(#SVGID_4_)" />
	<linearGradient
   id="SVGID_5_"
   gradientUnits="userSpaceOnUse"
   x1="358.5968"
   y1="814.09021"
   x2="291.17371"
   y2="933.71167">
		<stop
   offset="0"
   style="stop-color:#F9EC31"
   id="stop42" />
		<stop
   offset="1"
   style="stop-color:#F9A31B"
   id="stop44" />
	</linearGradient>
	<path
   class="st5"
   d="M 310.7,875.2 H 292.5 L 276,925.7 h 12.3 l 4.1,-11.9 h 18.8 l 3.9,11.9 h 12.3 z m -14.8,27.7 5.8,-17 5.7,17 z"
   id="path47"
   inkscape:connector-curvature="0"
   style="fill:url(#SVGID_5_)" />
	<linearGradient
   id="SVGID_6_"
   gradientUnits="userSpaceOnUse"
   x1="386.4386"
   y1="829.78278"
   x2="319.0155"
   y2="949.40442">
		<stop
   offset="0"
   style="stop-color:#F9EC31"
   id="stop49" />
		<stop
   offset="1"
   style="stop-color:#F9A31B"
   id="stop51" />
	</linearGradient>
	<path
   class="st6"
   d="m 371.2,876.6 c -1.2,-1 -2.6,-1.6 -4.2,-1.6 h -34.7 v 50.6 h 12.1 V 908.2 H 367 c 1.6,0 3,-0.5 4.2,-1.6 1.2,-1 1.7,-2.3 1.7,-3.9 v -22.5 c 0.1,-1.3 -0.5,-2.6 -1.7,-3.6 z M 361,897.5 H 344.4 V 885.8 H 361 Z"
   id="path54"
   inkscape:connector-curvature="0"
   style="fill:url(#SVGID_6_)" />
	<linearGradient
   id="SVGID_7_"
   gradientUnits="userSpaceOnUse"
   x1="424.87479"
   y1="851.44678"
   x2="357.45169"
   y2="971.06842">
		<stop
   offset="0"
   style="stop-color:#F9EC31"
   id="stop56" />
		<stop
   offset="1"
   style="stop-color:#F9A31B"
   id="stop58" />
	</linearGradient>
	<path
   class="st7"
   d="m 421.9,876.6 c -1.2,-1 -2.6,-1.6 -4.2,-1.6 h -34.6 v 50.6 h 12.1 v -17.4 h 22.6 c 1.6,0 3,-0.5 4.2,-1.6 1.2,-1 1.7,-2.3 1.7,-3.9 v -22.5 c -0.1,-1.3 -0.7,-2.6 -1.8,-3.6 z m -10.2,20.9 h -16.6 v -11.7 h 16.6 z"
   id="path61"
   inkscape:connector-curvature="0"
   style="fill:url(#SVGID_7_)" />
	<g
   id="g98">
		<linearGradient
   id="SVGID_8_"
   gradientUnits="userSpaceOnUse"
   x1="527.62122"
   y1="920.7049"
   x2="532.22559"
   y2="853.17273">
			<stop
   offset="0.2871"
   style="stop-color:#00ADEE"
   id="stop63" />
			<stop
   offset="1"
   style="stop-color:#007FC3"
   id="stop65" />
		</linearGradient>
		<path
   class="st8"
   d="m 550.1,880.4 v 22.5 c 0,1.5 -0.6,2.8 -1.7,3.9 -1.2,1 -2.6,1.6 -4.2,1.6 h -22.6 v 17.4 H 509.5 V 888 h 12.1 v 9.5 h 16.6 V 885.6 H 509.6 V 875 h 34.7 c 1.6,0 3,0.5 4.2,1.6 1,1 1.6,2.3 1.6,3.8 z"
   id="path68"
   inkscape:connector-curvature="0"
   style="fill:url(#SVGID_8_)" />
		<linearGradient
   id="SVGID_9_"
   gradientUnits="userSpaceOnUse"
   x1="581.62927"
   y1="924.38733"
   x2="586.23383"
   y2="856.8551">
			<stop
   offset="0.2871"
   style="stop-color:#00ADEE"
   id="stop70" />
			<stop
   offset="1"
   style="stop-color:#007FC3"
   id="stop72" />
		</linearGradient>
		<path
   class="st9"
   d="m 606.3,925.7 h -13.9 l -11.6,-17.4 h -8.6 v 17.4 H 560.3 V 888 h 11.9 v 9.5 h 16.6 V 885.6 H 560.3 V 875 h 34.4 c 1.7,0 3.1,0.5 4.3,1.6 1.2,1 1.7,2.3 1.7,3.8 v 22.5 c 0,1.5 -0.6,2.8 -1.7,3.9 -1.2,1 -2.6,1.6 -4.3,1.6 z"
   id="path75"
   inkscape:connector-curvature="0"
   style="fill:url(#SVGID_9_)" />
		<linearGradient
   id="SVGID_10_"
   gradientUnits="userSpaceOnUse"
   x1="617.73462"
   y1="926.849"
   x2="622.33899"
   y2="859.31677">
			<stop
   offset="0.2871"
   style="stop-color:#00ADEE"
   id="stop77" />
			<stop
   offset="1"
   style="stop-color:#007FC3"
   id="stop79" />
		</linearGradient>
		<path
   class="st10"
   d="m 613.6,875 v 50.6 h 11.9 V 875 Z"
   id="path82"
   inkscape:connector-curvature="0"
   style="fill:url(#SVGID_10_)" />
		<linearGradient
   id="SVGID_11_"
   gradientUnits="userSpaceOnUse"
   x1="656.78247"
   y1="929.51141"
   x2="661.38702"
   y2="861.97919">
			<stop
   offset="0.2871"
   style="stop-color:#00ADEE"
   id="stop84" />
			<stop
   offset="1"
   style="stop-color:#007FC3"
   id="stop86" />
		</linearGradient>
		<path
   class="st11"
   d="m 669.3,875 v 24.3 l -16,-24.3 h -17 v 50.6 h 11.8 v -34.3 l 22.7,34.3 h 10.4 V 875 Z"
   id="path89"
   inkscape:connector-curvature="0"
   style="fill:url(#SVGID_11_)" />
		<linearGradient
   id="SVGID_12_"
   gradientUnits="userSpaceOnUse"
   x1="702.78052"
   y1="932.64758"
   x2="707.38501"
   y2="865.11542">
			<stop
   offset="0.2871"
   style="stop-color:#00ADEE"
   id="stop91" />
			<stop
   offset="1"
   style="stop-color:#007FC3"
   id="stop93" />
		</linearGradient>
		<path
   class="st12"
   d="m 688.7,875 v 10.7 h 11.7 v 40 h 11.9 v -40 H 724 V 875 Z"
   id="path96"
   inkscape:connector-curvature="0"
   style="fill:url(#SVGID_12_)" />
	</g>
	<radialGradient
   id="SVGID_13_"
   cx="590.28882"
   cy="885.58929"
   r="1.074"
   gradientUnits="userSpaceOnUse">
		<stop
   offset="0.3564"
   style="stop-color:#00ADEE"
   id="stop100" />
		<stop
   offset="1"
   style="stop-color:#1B75BB"
   id="stop102" />
	</radialGradient>
	<line
   class="st13"
   x1="591.79999"
   y1="885.59998"
   x2="588.79999"
   y2="885.59998"
   id="line105"
   style="fill:url(#SVGID_13_)" />
	<radialGradient
   id="SVGID_14_"
   cx="591.20251"
   cy="888.04218"
   r="1.7201"
   gradientUnits="userSpaceOnUse">
		<stop
   offset="0.3564"
   style="stop-color:#00ADEE"
   id="stop107" />
		<stop
   offset="1"
   style="stop-color:#1B75BB"
   id="stop109" />
	</radialGradient>
	<line
   class="st14"
   x1="593.59998"
   y1="888"
   x2="588.79999"
   y2="888"
   id="line112"
   style="fill:url(#SVGID_14_)" />
	<radialGradient
   id="SVGID_15_"
   cx="588.77002"
   cy="883.4126"
   r="1.5391999"
   gradientUnits="userSpaceOnUse">
		<stop
   offset="0.3564"
   style="stop-color:#00ADEE"
   id="stop114" />
		<stop
   offset="1"
   style="stop-color:#1B75BB"
   id="stop116" />
	</radialGradient>
	<line
   class="st15"
   x1="588.79999"
   y1="885.59998"
   x2="588.79999"
   y2="881.20001"
   id="line119"
   style="fill:url(#SVGID_15_)" />
</g>
<path fill="none" ng-attr-stroke="{{config.stroke}}" ng-attr-stroke-width="{{config.width}}" ng-attr-stroke-dasharray="{{config.dasharray}}" d="M24.3,30C11.4,30,5,43.3,5,50s6.4,20,19.3,20c19.3,0,32.1-40,51.4-40 C88.6,30,95,43.3,95,50s-6.4,20-19.3,20C56.4,70,43.6,30,24.3,30z" stroke="#ffc107" stroke-width="5" stroke-dasharray="128.29446411132812 128.29446411132812"><animate attributeName="stroke-dashoffset" calcMode="linear" values="0;256.58892822265625" keyTimes="0;1" dur="1.5" begin="0s" repeatCount="indefinite"></animate></path>
</svg>
